<svg width="512" height="512" viewBox="0 0 512 512" xmlns="http://www.w3.org/2000/svg">
  <defs>
    <!-- Background gradient -->
    <linearGradient id="bgGrad" x1="0%" y1="0%" x2="100%" y2="100%">
      <stop offset="0%" style="stop-color:#0F172A;stop-opacity:1" />
      <stop offset="100%" style="stop-color:#1E1B4B;stop-opacity:1" />
    </linearGradient>
    
    <!-- Main spider body gradient -->
    <linearGradient id="spiderGrad" x1="0%" y1="0%" x2="100%" y2="100%">
      <stop offset="0%" style="stop-color:#8B5CF6;stop-opacity:1" />
      <stop offset="50%" style="stop-color:#6366F1;stop-opacity:1" />
      <stop offset="100%" style="stop-color:#3B82F6;stop-opacity:1" />
    </linearGradient>
    
    <!-- Web strand gradient -->
    <linearGradient id="webGrad" x1="0%" y1="0%" x2="100%" y2="100%">
      <stop offset="0%" style="stop-color:#06B6D4;stop-opacity:0.8" />
      <stop offset="100%" style="stop-color:#8B5CF6;stop-opacity:0.3" />
    </linearGradient>
    
    <!-- Data flow gradient -->
    <linearGradient id="dataGrad" x1="0%" y1="0%" x2="100%" y2="0%">
      <stop offset="0%" style="stop-color:#06B6D4;stop-opacity:1" />
      <stop offset="50%" style="stop-color:#8B5CF6;stop-opacity:1" />
      <stop offset="100%" style="stop-color:#EC4899;stop-opacity:1" />
    </linearGradient>
    
    <!-- Glow filter -->
    <filter id="glow" x="-50%" y="-50%" width="200%" height="200%">
      <feGaussianBlur stdDeviation="8" result="blur" />
      <feComposite in="SourceGraphic" in2="blur" operator="over" />
    </filter>
    
    <!-- Stronger glow -->
    <filter id="strongGlow" x="-50%" y="-50%" width="200%" height="200%">
      <feGaussianBlur stdDeviation="15" result="blur" />
      <feMerge>
        <feMergeNode in="blur" />
        <feMergeNode in="SourceGraphic" />
      </feMerge>
    </filter>
    
    <!-- Shadow -->
    <filter id="shadow" x="-20%" y="-20%" width="140%" height="140%">
      <feDropShadow dx="0" dy="8" stdDeviation="12" flood-color="#000000" flood-opacity="0.5" />
    </filter>
  </defs>
  
  <!-- Background circle -->
  <circle cx="256" cy="256" r="240" fill="url(#bgGrad)" filter="url(#shadow)" />
  
  <!-- Outer ring with data points -->
  <circle cx="256" cy="256" r="200" fill="none" stroke="url(#dataGrad)" stroke-width="2" stroke-dasharray="8 12" opacity="0.6" />
  
  <!-- Web network - radial lines -->
  <g opacity="0.4">
    <line x1="256" y1="56" x2="256" y2="456" stroke="url(#webGrad)" stroke-width="1" />
    <line x1="56" y1="256" x2="456" y2="256" stroke="url(#webGrad)" stroke-width="1" />
    <line x1="114" y1="114" x2="398" y2="398" stroke="url(#webGrad)" stroke-width="1" />
    <line x1="398" y1="114" x2="114" y2="398" stroke="url(#webGrad)" stroke-width="1" />
  </g>
  
  <!-- Web network - concentric circles -->
  <g opacity="0.3">
    <circle cx="256" cy="256" r="60" fill="none" stroke="url(#webGrad)" stroke-width="1" />
    <circle cx="256" cy="256" r="100" fill="none" stroke="url(#webGrad)" stroke-width="1" />
    <circle cx="256" cy="256" r="140" fill="none" stroke="url(#webGrad)" stroke-width="1" />
    <circle cx="256" cy="256" r="180" fill="none" stroke="url(#webGrad)" stroke-width="1" />
  </g>
  
  <!-- Data flow particles on outer ring -->
  <g filter="url(#glow)">
    <circle cx="256" cy="56" r="4" fill="#06B6D4" />
    <circle cx="456" cy="256" r="4" fill="#8B5CF6" />
    <circle cx="256" cy="456" r="4" fill="#EC4899" />
    <circle cx="56" cy="256" r="4" fill="#06B6D4" />
    <circle cx="397" cy="115" r="3" fill="#8B5CF6" />
    <circle cx="397" cy="397" r="3" fill="#EC4899" />
    <circle cx="115" cy="397" r="3" fill="#06B6D4" />
    <circle cx="115" cy="115" r="3" fill="#8B5CF6" />
  </g>
  
  <!-- Central spider icon -->
  <g filter="url(#strongGlow)" transform="translate(256, 240)">
    <!-- Spider body -->
    <ellipse cx="0" cy="0" rx="28" ry="35" fill="url(#spiderGrad)" />
    
    <!-- Spider head -->
    <circle cx="0" cy="-40" r="18" fill="url(#spiderGrad)" />
    
    <!-- Spider eyes -->
    <circle cx="-8" cy="-42" r="4" fill="#06B6D4" filter="url(#glow)" />
    <circle cx="8" cy="-42" r="4" fill="#06B6D4" filter="url(#glow)" />
    <circle cx="-4" cy="-36" r="2" fill="#06B6D4" />
    <circle cx="4" cy="-36" r="2" fill="#06B6D4" />
    
    <!-- Spider legs - left side -->
    <path d="M-25 -15 Q-60 -40 -80 -20" stroke="url(#spiderGrad)" stroke-width="6" fill="none" stroke-linecap="round" />
    <path d="M-28 0 Q-65 -10 -85 10" stroke="url(#spiderGrad)" stroke-width="6" fill="none" stroke-linecap="round" />
    <path d="M-25 15 Q-60 20 -80 40" stroke="url(#spiderGrad)" stroke-width="6" fill="none" stroke-linecap="round" />
    <path d="M-20 28 Q-50 45 -65 65" stroke="url(#spiderGrad)" stroke-width="5" fill="none" stroke-linecap="round" />
    
    <!-- Spider legs - right side -->
    <path d="M25 -15 Q60 -40 80 -20" stroke="url(#spiderGrad)" stroke-width="6" fill="none" stroke-linecap="round" />
    <path d="M28 0 Q65 -10 85 10" stroke="url(#spiderGrad)" stroke-width="6" fill="none" stroke-linecap="round" />
    <path d="M25 15 Q60 20 80 40" stroke="url(#spiderGrad)" stroke-width="6" fill="none" stroke-linecap="round" />
    <path d="M20 28 Q50 45 65 65" stroke="url(#spiderGrad)" stroke-width="5" fill="none" stroke-linecap="round" />
    
    <!-- Leg joints -->
    <circle cx="-60" cy="-25" r="4" fill="#8B5CF6" />
    <circle cx="-65" cy="0" r="4" fill="#8B5CF6" />
    <circle cx="-60" cy="25" r="4" fill="#8B5CF6" />
    <circle cx="-50" cy="50" r="3" fill="#8B5CF6" />
    
    <circle cx="60" cy="-25" r="4" fill="#8B5CF6" />
    <circle cx="65" cy="0" r="4" fill="#8B5CF6" />
    <circle cx="60" cy="25" r="4" fill="#8B5CF6" />
    <circle cx="50" cy="50" r="3" fill="#8B5CF6" />
  </g>
  
  <!-- Digital data streams from spider -->
  <g filter="url(#glow)" opacity="0.8">
    <path d="M256 180 L256 100" stroke="#06B6D4" stroke-width="2" stroke-dasharray="4 4" />
    <path d="M220 200 L160 140" stroke="#8B5CF6" stroke-width="2" stroke-dasharray="4 4" />
    <path d="M292 200 L352 140" stroke="#EC4899" stroke-width="2" stroke-dasharray="4 4" />
    <path d="M210 240 L140 240" stroke="#06B6D4" stroke-width="2" stroke-dasharray="4 4" />
    <path d="M302 240 L372 240" stroke="#8B5CF6" stroke-width="2" stroke-dasharray="4 4" />
  </g>
  
  <!-- Floating data nodes -->
  <g filter="url(#glow)">
    <circle cx="160" cy="140" r="6" fill="#06B6D4" />
    <circle cx="352" cy="140" r="6" fill="#EC4899" />
    <circle cx="140" cy="240" r="5" fill="#8B5CF6" />
    <circle cx="372" cy="240" r="5" fill="#06B6D4" />
    <circle cx="256" cy="100" r="7" fill="#8B5CF6" />
  </g>
  
  <!-- Text: NEXCRAWL -->
  <text x="256" y="420" font-family="system-ui, -apple-system, 'Segoe UI', Roboto, sans-serif" font-size="36" fill="white" text-anchor="middle" font-weight="800" letter-spacing="10" filter="url(#glow)">NEXCRAWL</text>
  
  <!-- Subtitle -->
  <text x="256" y="450" font-family="system-ui, -apple-system, 'Segoe UI', Roboto, sans-serif" font-size="14" fill="#94A3B8" text-anchor="middle" font-weight="400" letter-spacing="6">OMNICRAWL</text>
</svg>
